<?xml version="1.0" encoding="UTF-8" standalone="no"?>
<svg
   viewBox="0 0 48 48"
   width="64"
   height="64"
   version="1.1"
   id="svg1"
   sodipodi:docname="SchoolIcon16.svg"
   inkscape:version="1.3.2 (091e20e, 2023-11-25, custom)"
   xmlns:inkscape="http://www.inkscape.org/namespaces/inkscape"
   xmlns:sodipodi="http://sodipodi.sourceforge.net/DTD/sodipodi-0.dtd"
   xmlns="http://www.w3.org/2000/svg"
   xmlns:svg="http://www.w3.org/2000/svg">
  <defs
     id="defs1" />
  <sodipodi:namedview
     id="namedview1"
     pagecolor="#ffffff"
     bordercolor="#000000"
     borderopacity="0.25"
     inkscape:showpageshadow="2"
     inkscape:pageopacity="0.0"
     inkscape:pagecheckerboard="0"
     inkscape:deskcolor="#d1d1d1"
     showgrid="false"
     showguides="true"
     inkscape:zoom="12.765625"
     inkscape:cx="31.960832"
     inkscape:cy="32"
     inkscape:window-width="1920"
     inkscape:window-height="1094"
     inkscape:window-x="-11"
     inkscape:window-y="-11"
     inkscape:window-maximized="1"
     inkscape:current-layer="svg1">
    <sodipodi:guide
       position="12,48"
       orientation="0,-1"
       id="guide1"
       inkscape:locked="false" />
  </sodipodi:namedview>
  <g
     fill="#418fde"
     data-name="Layer 2"
     id="g1"
     transform="scale(0.25)">
    <path
       d="m 46.5,45 h -45 a 1.5,1.5 0 0 0 0,3 h 45 a 1.5,1.5 0 0 0 0,-3 z M 20,33 a 2.006,2.006 0 0 1 2,-2 h 4 a 2.006,2.006 0 0 1 2,2 V 43 H 44 V 18 A 1.003,1.003 0 0 0 43,17 H 33 L 26,11.75 V 8 h 9 V 2 h -9 a 2,2 0 0 0 -4,0 v 9.75 L 15,17 H 5 A 1.003,1.003 0 0 0 4,18 V 43 H 20 Z M 35,22 a 1.003,1.003 0 0 1 1,-1 h 2 a 1.003,1.003 0 0 1 1,1 v 5 a 1.003,1.003 0 0 1 -1,1 h -2 a 1.003,1.003 0 0 1 -1,-1 z m 0,11 a 1.003,1.003 0 0 1 1,-1 h 2 a 1.003,1.003 0 0 1 1,1 v 5 a 1.003,1.003 0 0 1 -1,1 h -2 a 1.003,1.003 0 0 1 -1,-1 z m -22,5 a 1.003,1.003 0 0 1 -1,1 H 10 A 1.003,1.003 0 0 1 9,38 v -5 a 1.003,1.003 0 0 1 1,-1 h 2 a 1.003,1.003 0 0 1 1,1 z m 0,-11 a 1.003,1.003 0 0 1 -1,1 H 10 A 1.003,1.003 0 0 1 9,27 v -5 a 1.003,1.003 0 0 1 1,-1 h 2 a 1.003,1.003 0 0 1 1,1 z m 15,-6 a 4,4 0 1 1 -4,-4 3.999,3.999 0 0 1 4,4 z"
       id="path1" />
  </g>
</svg>
